HIERARCHY
ROOT Hips
{
	OFFSET -0.179506 -22.333345 2.821913
	CHANNELS 6 Xposition Yposition Zposition Zrotation Yrotation Xrotation 
	JOINT LeftUpLeg
	{
		OFFSET 6.951974 -9.140623 -0.681533
		CHANNELS 3 Zrotation Yrotation Xrotation
		JOINT LeftLeg
		{
			OFFSET 3.427654 -37.519855 -0.449580
			CHANNELS 3 Zrotation Yrotation Xrotation
			JOINT LeftFoot
			{
				OFFSET -1.359570 -39.796059 -4.369333
				CHANNELS 3 Zrotation Yrotation Xrotation
				JOINT LeftToe
				{
					OFFSET 2.635814 -5.579078 11.928840
					CHANNELS 3 Zrotation Yrotation Xrotation
					End Site
					{
						OFFSET 0.000000 0.000000 0.000000
					}
				}
			}
		}
	}
	JOINT RightUpLeg
	{
		OFFSET -6.767048 -9.052170 -0.431982
		CHANNELS 3 Zrotation Yrotation Xrotation
		JOINT RightLeg
		{
			OFFSET -3.829005 -38.256897 -0.885003
			CHANNELS 3 Zrotation Yrotation Xrotation
			JOINT RightFoot
			{
				OFFSET 1.577377 -39.841461 -4.231180
				CHANNELS 3 Zrotation Yrotation Xrotation
				JOINT RightToe
				{
					OFFSET -2.537174 -4.814398 12.334795
					CHANNELS 3 Zrotation Yrotation Xrotation
					End Site
					{
						OFFSET 0.000000 0.000000 0.000000
					}
				}
			}
		}
	}
	JOINT Spine
	{
		OFFSET -0.253288 10.896323 -2.669631
		CHANNELS 3 Zrotation Yrotation Xrotation
		JOINT Spine1
		{
			OFFSET 0.548704 13.518043 0.109247
			CHANNELS 3 Zrotation Yrotation Xrotation
			JOINT Spine2
			{
				OFFSET 0.145701 5.292222 2.542457
				CHANNELS 3 Zrotation Yrotation Xrotation
				JOINT Neck
				{
					OFFSET -0.277840 21.387037 -4.285703
					CHANNELS 3 Zrotation Yrotation Xrotation
					JOINT Head
					{
						OFFSET 0.515184 6.496960 5.134897
						CHANNELS 3 Zrotation Yrotation Xrotation
						End Site
						{
							OFFSET 0.000000 0.000000 0.000000
						}
					}
				}
				JOINT LeftShoulder
				{
					OFFSET 7.884473 12.174932 -3.408961
					CHANNELS 3 Zrotation Yrotation Xrotation
					JOINT LeftArm
					{
						OFFSET 9.097692 3.046888 -0.886815
						CHANNELS 3 Zrotation Yrotation Xrotation
						JOINT LeftForeArm
						{
							OFFSET 25.961220 -1.277207 -2.745643
							CHANNELS 3 Zrotation Yrotation Xrotation
							JOINT LeftHand
							{
								OFFSET 24.923361 0.898606 -0.117091
								CHANNELS 3 Zrotation Yrotation Xrotation
								End Site
								{
									OFFSET 0.000000 0.000000 0.000000
								}
							}
						}
					}
				}
				JOINT RightShoulder
				{
					OFFSET -8.175920 11.883285 -3.861528
					CHANNELS 3 Zrotation Yrotation Xrotation
					JOINT RightArm
					{
						OFFSET -9.601238 3.255117 -0.914307
						CHANNELS 3 Zrotation Yrotation Xrotation
						JOINT RightForeArm
						{
							OFFSET -25.374195 -1.332924 -2.140099
							CHANNELS 3 Zrotation Yrotation Xrotation
							JOINT RightHand
							{
								OFFSET -25.529810 0.777228 -0.555919
								CHANNELS 3 Zrotation Yrotation Xrotation
								End Site
								{
									OFFSET 0.000000 0.000000 0.000000
								}
							}
						}
					}
				}
			}
		}
	}
}
MOTION
Frames: 13
Frame Time: 0.033333
-51.679264 23.625549 93.395576 -118.292503 1.724738 83.922648 4.226112 1.738459 5.798377 -1.447649 -2.804723 1.124699 -1.033242 4.820220 -14.061432 nan nan nan -0.975022 -1.992554 8.228420 1.630846 -2.617811 -2.156333 2.728217 -1.758937 -10.614062 nan nan nan 0.395075 2.459377 10.182279 3.049489 -3.717723 8.594119 3.013309 -2.068447 -2.007707 -1.012561 0.373424 -8.163633 0.821304 -6.856801 -2.369726 -24.231752 -0.989400 5.930949 -67.285447 -10.598815 12.565013 15.963929 -22.326642 10.256398 -7.073362 -17.729559 -15.317936 26.514012 3.080730 2.263748 57.808968 6.846720 10.242765 -16.965668 20.496554 -3.634956 10.876889 15.736829 -14.706702 
-51.676800 23.630978 93.398003 -118.219994 1.780764 83.930328 4.233760 1.680271 5.803438 -1.310607 -2.890672 1.033037 -0.971700 4.822476 -14.056092 nan nan nan -0.880918 -1.953966 8.238091 1.612342 -2.628117 -2.196263 2.745697 -1.867405 -10.592176 nan nan nan 0.417841 2.467686 10.219258 3.066008 -3.700973 8.514441 3.072858 -2.134361 -2.008484 -1.015733 0.297697 -8.140124 0.820702 -6.794651 -2.366072 -24.279917 -1.041754 6.008959 -67.302293 -10.610604 12.557470 16.020876 -22.247380 10.115890 -7.052057 -17.816825 -15.358981 26.530692 3.064598 2.231500 57.740513 6.730924 10.282465 -16.974089 20.508992 -3.608541 10.974740 15.829578 -14.796327 
-51.678787 23.642342 93.408272 -118.175539 1.803166 83.948032 4.240494 1.673398 5.772787 -1.232737 -2.931123 1.041589 -0.935838 4.795132 -14.058689 nan nan nan -0.847538 -1.941741 8.274178 1.627899 -2.551466 -2.272726 2.725567 -1.932803 -10.589451 nan nan nan 0.397746 2.537275 10.226572 3.079922 -3.680320 8.448153 3.137746 -2.215568 -2.019231 -1.023818 0.187626 -8.039876 0.850511 -6.720890 -2.436682 -24.288127 -1.115796 6.133368 -67.334943 -10.638269 12.561289 16.057396 -22.196321 9.971297 -6.976269 -17.751069 -15.575093 26.544028 3.009519 2.205769 57.706240 6.656062 10.302425 -16.944748 20.528950 -3.567405 11.082162 15.848846 -14.771803 
-51.691494 23.646238 93.409111 -118.206329 1.788242 83.923939 4.232646 1.708111 5.808885 -1.234186 -2.902508 1.050596 -0.903745 4.761204 -14.079626 nan nan nan -0.886233 -1.955061 8.342625 1.663387 -2.524506 -2.342507 2.698223 -1.905362 -10.575650 nan nan nan 0.398468 2.562495 10.203687 3.064208 -3.688724 8.490524 3.130302 -2.233544 -2.011902 -1.031622 0.159133 -8.022364 0.837055 -6.689512 -2.508435 -24.273083 -1.125536 6.163066 -67.359136 -10.613427 12.560204 16.117515 -22.230607 9.952864 -7.066208 -17.723766 -15.694659 26.530265 3.016152 2.229041 57.727139 6.673636 10.277660 -16.956278 20.526520 -3.606518 11.226258 15.860186 -14.694693 
-51.690990 23.643391 93.402275 -118.276369 1.799864 83.869283 4.273798 1.747860 5.880584 -1.288955 -2.892392 1.052657 -0.892666 4.740578 -14.113320 nan nan nan -0.879424 -1.975949 8.381798 1.653457 -2.531518 -2.316823 2.696157 -1.837716 -10.578412 nan nan nan 0.432062 2.479422 10.211972 3.064168 -3.694830 8.565738 3.072446 -2.151883 -1.979935 -1.039918 0.195132 -8.130072 0.763557 -6.750857 -2.464637 -24.218277 -1.019283 6.021290 -67.405019 -10.617812 12.543593 16.065681 -22.200589 10.036946 -7.097946 -17.729973 -15.650419 26.438949 3.029591 2.166597 57.869927 6.740442 10.312006 -16.983649 20.437691 -3.671446 11.178659 15.808243 -14.680659 
-51.685524 23.650530 93.392899 -118.360030 1.817605 83.854187 4.333489 1.789294 5.882267 -1.362833 -2.856081 1.119232 -0.912458 4.740674 -14.184498 nan nan nan -0.847392 -1.983289 8.360880 1.614266 -2.501211 -2.243887 2.697712 -1.745589 -10.582133 nan nan nan 0.457348 2.441585 10.171157 3.066052 -3.698783 8.633035 3.041059 -2.096417 -1.967034 -1.035199 0.304006 -8.138550 0.741799 -6.749081 -2.480550 -24.157640 -0.945823 5.919537 -67.456411 -10.599968 12.551941 16.004620 -22.163358 10.186718 -7.116140 -17.734376 -15.507039 26.401815 3.029927 2.134940 57.895400 6.810261 10.308931 -16.881760 20.364432 -3.579518 11.026277 15.819984 -14.674654 
-51.669731 23.670130 93.380600 -118.433637 1.830842 83.895613 4.375914 1.825173 5.779217 -1.407252 -2.757758 1.260854 -0.900468 4.741473 -14.209097 nan nan nan -0.835468 -1.984662 8.278543 1.625291 -2.476599 -2.188300 2.688746 -1.639947 -10.560693 nan nan nan 0.469037 2.425569 10.083851 3.066880 -3.679848 8.685860 3.008298 -2.087368 -1.957401 -1.017783 0.381265 -8.200100 0.715351 -6.749991 -2.441961 -24.156986 -0.852309 5.867054 -67.424607 -10.587053 12.553063 16.002260 -22.178198 10.342104 -7.270663 -17.754235 -15.268828 26.440962 3.016902 2.163185 57.875812 6.868414 10.326415 -16.870544 20.339230 -3.520747 11.106727 15.859613 -14.747859 
-51.648232 23.686459 93.381752 -118.459048 1.811146 83.893991 4.361484 1.811467 5.742199 -1.397144 -2.746681 1.320683 -0.893600 4.756488 -14.218011 nan nan nan -0.838818 -1.964050 8.277251 1.616717 -2.441635 -2.194870 2.697026 -1.658306 -10.578243 nan nan nan 0.416551 2.456105 10.079747 3.071789 -3.669866 8.725668 3.017583 -2.085221 -1.975980 -1.014096 0.382416 -8.234969 0.745406 -6.756111 -2.445004 -24.130025 -0.851460 5.882175 -67.444860 -10.595989 12.573956 16.037204 -22.167363 10.348105 -7.120244 -17.779078 -15.317503 26.459923 3.008308 2.150735 57.900960 6.865944 10.333262 -16.908321 20.321449 -3.568702 11.163285 15.915930 -14.843911 
-51.643986 23.679358 93.385986 -118.391608 1.830694 83.940334 4.332671 1.768542 5.648429 -1.317326 -2.841073 1.345755 -0.870841 4.793788 -14.203367 nan nan nan -0.794978 -1.958679 8.199376 1.593515 -2.456887 -2.154563 2.681768 -1.774271 -10.617486 nan nan nan 0.404960 2.497627 10.086231 3.097241 -3.675265 8.659016 3.064424 -2.136542 -1.999574 -1.025283 0.327361 -8.209411 0.769359 -6.725544 -2.441041 -24.149065 -0.905232 5.987487 -67.464678 -10.568306 12.586337 16.038573 -22.235891 10.260574 -6.914310 -17.685590 -15.552743 26.485653 2.999886 2.162250 57.878600 6.804456 10.316117 -16.961448 20.318367 -3.559963 11.125377 15.871626 -14.744882 
-51.650345 23.675308 93.390617 -118.292728 1.851902 83.949348 4.317676 1.741807 5.537596 -1.273966 -2.935251 1.495551 -0.839215 4.845538 -14.226025 nan nan nan -0.768351 -1.976006 8.217660 1.635063 -2.494689 -2.192593 2.664251 -1.899328 -10.649566 nan nan nan 0.381919 2.560649 10.182955 3.134644 -3.649149 8.482398 3.150647 -2.238876 -1.985772 -1.037034 0.203053 -8.222408 0.759334 -6.682984 -2.375251 -24.170344 -0.973588 6.123524 -67.531483 -10.583144 12.575216 16.076371 -22.244699 10.173490 -6.813265 -17.658185 -15.767074 26.439916 2.933337 2.106396 57.927738 6.721407 10.295863 -17.009403 20.308451 -3.590808 11.129660 15.884695 -14.770596 
-51.654655 23.667389 93.391922 -118.294569 1.811415 83.943529 4.266369 1.703976 5.482117 -1.281693 -2.920587 1.602459 -0.772228 4.872421 -14.259044 nan nan nan -0.807738 -1.942686 8.229792 1.640827 -2.465527 -2.211157 2.677382 -1.923210 -10.640294 nan nan nan 0.333200 2.572793 10.231258 3.142373 -3.620514 8.381758 3.164524 -2.263859 -1.925168 -1.021869 0.163637 -8.299034 0.728708 -6.681839 -2.291278 -24.172027 -0.950720 6.146737 -67.526957 -10.584632 12.592611 16.065220 -22.271199 10.195100 -6.764656 -17.733378 -15.761370 26.430170 2.891819 2.050665 57.979886 6.715473 10.337579 -17.024973 20.231657 -3.679118 11.068915 16.018058 -14.768127 
-51.645668 23.664951 93.393593 -118.333649 1.809004 83.915885 4.264661 1.706494 5.472427 -1.294496 -2.923803 1.694097 -0.744537 4.851648 -14.354322 nan nan nan -0.792230 -1.920623 8.206917 1.585545 -2.423073 -2.173050 2.725687 -1.915525 -10.652502 nan nan nan 0.349417 2.535942 10.229324 3.134160 -3.638545 8.431044 3.129321 -2.217640 -1.907775 -0.997288 0.222265 -8.357279 0.705286 -6.700069 -2.253931 -24.165413 -0.912983 6.097508 -67.470967 -10.517568 12.623348 15.988883 -22.338706 10.318012 -6.719565 -17.766470 -15.662043 26.438652 2.924221 2.028978 58.005813 6.729867 10.347599 -17.028585 20.189034 -3.752912 11.006315 16.078474 -14.680935 
-51.626801 23.675064 93.395508 -118.387713 1.819620 83.878974 4.314383 1.727267 5.449768 -1.358787 -2.860966 1.827562 -0.768131 4.826042 -14.398901 nan nan nan -0.789540 -1.920762 8.230634 1.592880 -2.381077 -2.228973 2.803960 -1.905024 -10.641691 nan nan nan 0.368515 2.490527 10.204735 3.127652 -3.673665 8.522873 3.070223 -2.145401 -1.886346 -0.982587 0.347160 -8.364839 0.687792 -6.736593 -2.230788 -24.129708 -0.811766 6.033791 -67.403399 -10.411737 12.610124 15.957934 -22.586299 10.511267 -6.952534 -17.682857 -15.426594 26.462200 2.922688 2.000220 58.028441 6.764813 10.350202 -17.043326 20.212899 -3.721071 11.095703 15.931399 -14.552855 
